<mxfile host="app.diagrams.net" agent="Mozilla/5.0 (Macintosh; Intel Mac OS X 10_15_7) AppleWebKit/537.36 (KHTML, like Gecko) Chrome/131.0.0.0 Safari/537.36" version="27.1.1">
  <diagram name="GraphSync Sequence" id="graphsync-sequence">
    <mxGraphModel dx="2348" dy="885" grid="1" gridSize="10" guides="1" tooltips="1" connect="1" arrows="1" fold="1" page="1" pageScale="1" pageWidth="1200" pageHeight="1600" math="0" shadow="0">
      <root>
        <mxCell id="0" />
        <mxCell id="1" parent="0" />
        <mxCell id="gha" value="GitHub Actions\nWorkflow" style="shape=umlActor;verticalLabelPosition=bottom;verticalAlign=top;html=1;outlineConnect=0;" parent="1" vertex="1">
          <mxGeometry x="50" y="50" width="30" height="60" as="geometry" />
        </mxCell>
        <mxCell id="script" value="fetch_branches_dependecies.sh" style="rounded=1;whiteSpace=wrap;html=1;fillColor=#fff2cc;strokeColor=#d6b656;" parent="1" vertex="1">
          <mxGeometry x="120" y="50" width="190" height="60" as="geometry" />
        </mxCell>
        <mxCell id="api" value="FastAPI&lt;br&gt;Controller" style="rounded=1;whiteSpace=wrap;html=1;fillColor=#dae8fc;strokeColor=#6c8ebf;" parent="1" vertex="1">
          <mxGeometry x="320" y="50" width="100" height="60" as="geometry" />
        </mxCell>
        <mxCell id="config" value="Config&lt;br&gt;Manager" style="rounded=1;whiteSpace=wrap;html=1;fillColor=#dae8fc;strokeColor=#6c8ebf;" parent="1" vertex="1">
          <mxGeometry x="470" y="50" width="100" height="60" as="geometry" />
        </mxCell>
        <mxCell id="fetcher" value="Fetcher&lt;br&gt;Service" style="rounded=1;whiteSpace=wrap;html=1;fillColor=#dae8fc;strokeColor=#6c8ebf;" parent="1" vertex="1">
          <mxGeometry x="620" y="50" width="100" height="60" as="geometry" />
        </mxCell>
        <mxCell id="odoo1" value="Odoo Instance&lt;br&gt;(branch-a)" style="rounded=1;whiteSpace=wrap;html=1;fillColor=#d5e8d4;strokeColor=#82b366;" parent="1" vertex="1">
          <mxGeometry x="770" y="50" width="100" height="60" as="geometry" />
        </mxCell>
        <mxCell id="odoo2" value="Odoo Instance&lt;br&gt;(branch-b)" style="rounded=1;whiteSpace=wrap;html=1;fillColor=#d5e8d4;strokeColor=#82b366;" parent="1" vertex="1">
          <mxGeometry x="920" y="50" width="100" height="60" as="geometry" />
        </mxCell>
        <mxCell id="gha_lifeline" value="" style="html=1;points=[];perimeter=orthogonalPerimeter;outlineConnect=0;targetShapes=umlLifeline;portConstraint=eastwest;newEdgeStyle={&quot;edgeStyle&quot;:&quot;elbowEdgeStyle&quot;,&quot;elbow&quot;:&quot;vertical&quot;,&quot;curved&quot;:0,&quot;rounded&quot;:0};" parent="1" vertex="1">
          <mxGeometry x="60" y="140" width="10" height="610" as="geometry" />
        </mxCell>
        <mxCell id="script_lifeline" value="" style="html=1;points=[];perimeter=orthogonalPerimeter;outlineConnect=0;targetShapes=umlLifeline;portConstraint=eastwest;newEdgeStyle={&quot;edgeStyle&quot;:&quot;elbowEdgeStyle&quot;,&quot;elbow&quot;:&quot;vertical&quot;,&quot;curved&quot;:0,&quot;rounded&quot;:0};" parent="1" vertex="1">
          <mxGeometry x="205" y="140" width="10" height="610" as="geometry" />
        </mxCell>
        <mxCell id="api_lifeline" value="" style="html=1;points=[];perimeter=orthogonalPerimeter;outlineConnect=0;targetShapes=umlLifeline;portConstraint=eastwest;newEdgeStyle={&quot;edgeStyle&quot;:&quot;elbowEdgeStyle&quot;,&quot;elbow&quot;:&quot;vertical&quot;,&quot;curved&quot;:0,&quot;rounded&quot;:0};" parent="1" vertex="1">
          <mxGeometry x="365" y="140" width="10" height="610" as="geometry" />
        </mxCell>
        <mxCell id="config_lifeline" value="" style="html=1;points=[];perimeter=orthogonalPerimeter;outlineConnect=0;targetShapes=umlLifeline;portConstraint=eastwest;newEdgeStyle={&quot;edgeStyle&quot;:&quot;elbowEdgeStyle&quot;,&quot;elbow&quot;:&quot;vertical&quot;,&quot;curved&quot;:0,&quot;rounded&quot;:0};" parent="1" vertex="1">
          <mxGeometry x="515" y="140" width="10" height="610" as="geometry" />
        </mxCell>
        <mxCell id="fetcher_lifeline" value="" style="html=1;points=[];perimeter=orthogonalPerimeter;outlineConnect=0;targetShapes=umlLifeline;portConstraint=eastwest;newEdgeStyle={&quot;edgeStyle&quot;:&quot;elbowEdgeStyle&quot;,&quot;elbow&quot;:&quot;vertical&quot;,&quot;curved&quot;:0,&quot;rounded&quot;:0};" parent="1" vertex="1">
          <mxGeometry x="665" y="140" width="10" height="610" as="geometry" />
        </mxCell>
        <mxCell id="odoo1_lifeline" value="" style="html=1;points=[];perimeter=orthogonalPerimeter;outlineConnect=0;targetShapes=umlLifeline;portConstraint=eastwest;newEdgeStyle={&quot;edgeStyle&quot;:&quot;elbowEdgeStyle&quot;,&quot;elbow&quot;:&quot;vertical&quot;,&quot;curved&quot;:0,&quot;rounded&quot;:0};" parent="1" vertex="1">
          <mxGeometry x="815" y="140" width="10" height="610" as="geometry" />
        </mxCell>
        <mxCell id="odoo2_lifeline" value="" style="html=1;points=[];perimeter=orthogonalPerimeter;outlineConnect=0;targetShapes=umlLifeline;portConstraint=eastwest;newEdgeStyle={&quot;edgeStyle&quot;:&quot;elbowEdgeStyle&quot;,&quot;elbow&quot;:&quot;vertical&quot;,&quot;curved&quot;:0,&quot;rounded&quot;:0};" parent="1" vertex="1">
          <mxGeometry x="965" y="140" width="10" height="620" as="geometry" />
        </mxCell>
        <mxCell id="msg1" value="Execute sh file script" style="html=1;verticalAlign=bottom;endArrow=block;edgeStyle=elbowEdgeStyle;elbow=horizontal;curved=0;rounded=0;" parent="1" edge="1">
          <mxGeometry x="-0.0065" relative="1" as="geometry">
            <mxPoint x="70" y="160" as="sourcePoint" />
            <mxPoint x="205" y="160" as="targetPoint" />
            <mxPoint as="offset" />
          </mxGeometry>
        </mxCell>
        <mxCell id="msg2" value="uvicorn app:app --host 0.0.0.0 --port 8000" style="html=1;verticalAlign=bottom;endArrow=block;edgeStyle=elbowEdgeStyle;elbow=vertical;curved=0;rounded=0;" parent="1" edge="1">
          <mxGeometry relative="1" as="geometry">
            <mxPoint x="215" y="200" as="sourcePoint" />
            <mxPoint x="365" y="200" as="targetPoint" />
          </mxGeometry>
        </mxCell>
        <mxCell id="msg3" value="Load config.yml" style="html=1;verticalAlign=bottom;endArrow=block;edgeStyle=elbowEdgeStyle;elbow=vertical;curved=0;rounded=0;" parent="1" edge="1">
          <mxGeometry relative="1" as="geometry">
            <mxPoint x="375" y="220" as="sourcePoint" />
            <mxPoint x="515" y="220" as="targetPoint" />
          </mxGeometry>
        </mxCell>
        <mxCell id="msg4" value="instances list" style="html=1;verticalAlign=bottom;endArrow=open;dashed=1;endSize=8;edgeStyle=elbowEdgeStyle;elbow=vertical;curved=0;rounded=0;" parent="1" edge="1">
          <mxGeometry relative="1" as="geometry">
            <mxPoint x="515" y="240" as="sourcePoint" />
            <mxPoint x="375" y="240" as="targetPoint" />
          </mxGeometry>
        </mxCell>
        <mxCell id="msg5" value="Service ready (200 OK)" style="html=1;verticalAlign=bottom;endArrow=open;dashed=1;endSize=8;edgeStyle=elbowEdgeStyle;elbow=vertical;curved=0;rounded=0;" parent="1" edge="1">
          <mxGeometry relative="1" as="geometry">
            <mxPoint x="365" y="260" as="sourcePoint" />
            <mxPoint x="215" y="260" as="targetPoint" />
          </mxGeometry>
        </mxCell>
        <mxCell id="msg6" value="GET /healthcheck" style="html=1;verticalAlign=bottom;endArrow=block;edgeStyle=elbowEdgeStyle;elbow=vertical;curved=0;rounded=0;" parent="1" edge="1">
          <mxGeometry relative="1" as="geometry">
            <mxPoint x="215" y="300" as="sourcePoint" />
            <mxPoint x="365" y="300" as="targetPoint" />
          </mxGeometry>
        </mxCell>
        <mxCell id="msg7" value="{&quot;status&quot;: &quot;ok&quot;, &quot;instances&quot;: 2}" style="html=1;verticalAlign=bottom;endArrow=open;dashed=1;endSize=8;edgeStyle=elbowEdgeStyle;elbow=vertical;curved=0;rounded=0;" parent="1" edge="1">
          <mxGeometry relative="1" as="geometry">
            <mxPoint x="365" y="320" as="sourcePoint" />
            <mxPoint x="215" y="320" as="targetPoint" />
          </mxGeometry>
        </mxCell>
        <mxCell id="msg8" value="POST /trigger\n{&quot;category_prefixes&quot;: [&quot;Custom&quot;], &quot;include_reverse&quot;: true}" style="html=1;verticalAlign=bottom;endArrow=block;edgeStyle=elbowEdgeStyle;elbow=vertical;curved=0;rounded=0;" parent="1" edge="1">
          <mxGeometry relative="1" as="geometry">
            <mxPoint x="215" y="360" as="sourcePoint" />
            <mxPoint x="365" y="360" as="targetPoint" />
          </mxGeometry>
        </mxCell>
        <mxCell id="msg9" value="fetch_all(instances, fetch_options)" style="html=1;verticalAlign=bottom;endArrow=block;edgeStyle=elbowEdgeStyle;elbow=vertical;curved=0;rounded=0;" parent="1" edge="1">
          <mxGeometry relative="1" as="geometry">
            <mxPoint x="375" y="400" as="sourcePoint" />
            <mxPoint x="665" y="400" as="targetPoint" />
          </mxGeometry>
        </mxCell>
        <mxCell id="msg10a" value="POST /api/graph/category\n{&quot;category_prefixes&quot;: [&quot;Custom&quot;]}" style="html=1;verticalAlign=bottom;endArrow=block;edgeStyle=elbowEdgeStyle;elbow=vertical;curved=0;rounded=0;" parent="1" edge="1">
          <mxGeometry relative="1" as="geometry">
            <mxPoint x="675" y="440" as="sourcePoint" />
            <mxPoint x="815" y="440" as="targetPoint" />
          </mxGeometry>
        </mxCell>
        <mxCell id="msg10b" value="POST /api/graph/category\n{&quot;category_prefixes&quot;: [&quot;Custom&quot;]}" style="html=1;verticalAlign=bottom;endArrow=block;edgeStyle=elbowEdgeStyle;elbow=vertical;curved=0;rounded=0;" parent="1" edge="1">
          <mxGeometry relative="1" as="geometry">
            <mxPoint x="675" y="460" as="sourcePoint" />
            <mxPoint x="965" y="460" as="targetPoint" />
          </mxGeometry>
        </mxCell>
        <mxCell id="msg11a" value="{&quot;nodes&quot;: [...], &quot;edges&quot;: [...]}" style="html=1;verticalAlign=bottom;endArrow=open;dashed=1;endSize=8;edgeStyle=elbowEdgeStyle;elbow=vertical;curved=0;rounded=0;" parent="1" edge="1">
          <mxGeometry relative="1" as="geometry">
            <mxPoint x="815" y="480" as="sourcePoint" />
            <mxPoint x="675" y="480" as="targetPoint" />
          </mxGeometry>
        </mxCell>
        <mxCell id="msg11b" value="{&quot;nodes&quot;: [...], &quot;edges&quot;: [...]}" style="html=1;verticalAlign=bottom;endArrow=open;dashed=1;endSize=8;edgeStyle=elbowEdgeStyle;elbow=vertical;curved=0;rounded=0;" parent="1" edge="1">
          <mxGeometry relative="1" as="geometry">
            <mxPoint x="965" y="500" as="sourcePoint" />
            <mxPoint x="675" y="500" as="targetPoint" />
          </mxGeometry>
        </mxCell>
        <mxCell id="msg12a" value="POST /api/graph/category/reverse" style="html=1;verticalAlign=bottom;endArrow=block;edgeStyle=elbowEdgeStyle;elbow=vertical;curved=0;rounded=0;" parent="1" edge="1">
          <mxGeometry relative="1" as="geometry">
            <mxPoint x="675" y="540" as="sourcePoint" />
            <mxPoint x="815" y="540" as="targetPoint" />
          </mxGeometry>
        </mxCell>
        <mxCell id="msg12b" value="POST /api/graph/category/reverse" style="html=1;verticalAlign=bottom;endArrow=block;edgeStyle=elbowEdgeStyle;elbow=vertical;curved=0;rounded=0;" parent="1" edge="1">
          <mxGeometry relative="1" as="geometry">
            <mxPoint x="675" y="560" as="sourcePoint" />
            <mxPoint x="965" y="560" as="targetPoint" />
          </mxGeometry>
        </mxCell>
        <mxCell id="msg13a" value="Reverse graph data" style="html=1;verticalAlign=bottom;endArrow=open;dashed=1;endSize=8;edgeStyle=elbowEdgeStyle;elbow=vertical;curved=0;rounded=0;" parent="1" edge="1">
          <mxGeometry relative="1" as="geometry">
            <mxPoint x="815" y="580" as="sourcePoint" />
            <mxPoint x="675" y="580" as="targetPoint" />
          </mxGeometry>
        </mxCell>
        <mxCell id="msg13b" value="Reverse graph data" style="html=1;verticalAlign=bottom;endArrow=open;dashed=1;endSize=8;edgeStyle=elbowEdgeStyle;elbow=vertical;curved=0;rounded=0;" parent="1" edge="1">
          <mxGeometry relative="1" as="geometry">
            <mxPoint x="965" y="600" as="sourcePoint" />
            <mxPoint x="675" y="600" as="targetPoint" />
          </mxGeometry>
        </mxCell>
        <mxCell id="msg14" value="List[InstanceResponse]" style="html=1;verticalAlign=bottom;endArrow=open;dashed=1;endSize=8;edgeStyle=elbowEdgeStyle;elbow=vertical;curved=0;rounded=0;" parent="1" edge="1">
          <mxGeometry relative="1" as="geometry">
            <mxPoint x="665" y="640" as="sourcePoint" />
            <mxPoint x="375" y="640" as="targetPoint" />
          </mxGeometry>
        </mxCell>
        <mxCell id="msg15" value="HTTP 200\n[{&quot;instance&quot;: &quot;branch-a&quot;, &quot;data&quot;: {...}}, {&quot;instance&quot;: &quot;branch-b&quot;, &quot;data&quot;: {...}}]" style="html=1;verticalAlign=bottom;endArrow=open;dashed=1;endSize=8;edgeStyle=elbowEdgeStyle;elbow=vertical;curved=0;rounded=0;" parent="1" edge="1">
          <mxGeometry relative="1" as="geometry">
            <mxPoint x="365" y="680" as="sourcePoint" />
            <mxPoint x="215" y="680" as="targetPoint" />
          </mxGeometry>
        </mxCell>
        <mxCell id="msg16" value="Exit with success code" style="html=1;verticalAlign=bottom;endArrow=open;dashed=1;endSize=8;edgeStyle=elbowEdgeStyle;elbow=vertical;curved=0;rounded=0;" parent="1" edge="1">
          <mxGeometry relative="1" as="geometry">
            <mxPoint x="205" y="720" as="sourcePoint" />
            <mxPoint x="70" y="720" as="targetPoint" />
          </mxGeometry>
        </mxCell>
        <mxCell id="section1" value="Service Initialization" style="text;html=1;strokeColor=none;fillColor=none;align=center;verticalAlign=middle;whiteSpace=wrap;rounded=0;fontStyle=1;fontSize=14;" parent="1" vertex="1">
          <mxGeometry x="30" y="180" width="150" height="20" as="geometry" />
        </mxCell>
        <mxCell id="section2" value="Health Check" style="text;html=1;strokeColor=none;fillColor=none;align=center;verticalAlign=middle;whiteSpace=wrap;rounded=0;fontStyle=1;fontSize=14;" parent="1" vertex="1">
          <mxGeometry x="30" y="280" width="100" height="20" as="geometry" />
        </mxCell>
        <mxCell id="section3" value="Trigger Sync" style="text;html=1;strokeColor=none;fillColor=none;align=center;verticalAlign=middle;whiteSpace=wrap;rounded=0;fontStyle=1;fontSize=14;" parent="1" vertex="1">
          <mxGeometry x="10" y="340" width="100" height="20" as="geometry" />
        </mxCell>
        <mxCell id="section4" value="Async Fetch" style="text;html=1;strokeColor=none;fillColor=none;align=center;verticalAlign=middle;whiteSpace=wrap;rounded=0;fontStyle=1;fontSize=14;" parent="1" vertex="1">
          <mxGeometry x="30" y="420" width="100" height="20" as="geometry" />
        </mxCell>
        <mxCell id="section5" value="Response" style="text;html=1;strokeColor=none;fillColor=none;align=center;verticalAlign=middle;whiteSpace=wrap;rounded=0;fontStyle=1;fontSize=14;" parent="1" vertex="1">
          <mxGeometry x="10" y="630" width="100" height="20" as="geometry" />
        </mxCell>
      </root>
    </mxGraphModel>
  </diagram>
</mxfile>
